<?xml version="1.0" encoding="iso-8859-1"?>
<!-- Generator: Adobe Illustrator 19.0.0, SVG Export Plug-In . SVG Version: 6.00 Build 0)  -->
<svg version="1.1" id="Layer_1" xmlns="http://www.w3.org/2000/svg" xmlns:xlink="http://www.w3.org/1999/xlink" x="0px" y="0px"
	 viewBox="0 0 485 485" style="enable-background:new 0 0 485 485;" xml:space="preserve" fill="#098081">
<g id="XMLID_29_">
	<g>
		<g>
			<path d="M485,5H0v355h178.151l-16.667,75H130v45h225v-45h-31.484l-16.667-75H485V5z M340,450v15H145v-15H340z M212.106,435
				l11.25-45h38.288l11.25,45H212.106z M308.151,435h-19.795l-15-60h-61.712l-15,60h-19.795l16.667-75h97.968L308.151,435z M470,345
				H15V20h455V345z"/>
			<path d="M450,40H35v285h415V40z M435,310H50V55h385V310z"/>
		</g>
	</g>
</g>
<g>
</g>
<g>
</g>
<g>
</g>
<g>
</g>
<g>
</g>
<g>
</g>
<g>
</g>
<g>
</g>
<g>
</g>
<g>
</g>
<g>
</g>
<g>
</g>
<g>
</g>
<g>
</g>
<g>
</g>
</svg>
